<?xml version="1.0" encoding="UTF-8"?>
<svg version="1.1" xmlns="http://www.w3.org/2000/svg" width="788" height="158">
<path d="M0 0 C0.74121094 0.06703125 1.48242188 0.1340625 2.24609375 0.203125 C5.85946337 1.05619709 8.67230761 2.6566695 11.02929688 5.55151367 C16.16441469 14.48890184 20.58425668 23.7844855 25.0625 33.0625 C25.95307725 34.89926957 26.8440315 36.7358564 27.73535156 38.57226562 C29.94295221 43.12346954 32.14512669 47.67727314 34.34545898 52.23199463 C35.80611509 55.25402912 37.26997199 58.27450338 38.734375 61.29472351 C45.0923207 74.40928838 51.35628269 87.56178822 57.5625 100.75 C57.8925 68.08 58.2225 35.41 58.5625 1.75 C64.5025 1.75 70.4425 1.75 76.5625 1.75 C76.63195898 17.70083761 76.68548998 33.65161281 76.71793652 49.60256481 C76.73340272 57.00893999 76.75448743 64.41521946 76.78881836 71.8215332 C76.81872838 78.2771908 76.8380768 84.73277908 76.84476548 91.18850404 C76.84867506 94.60650706 76.85785772 98.02431177 76.87969017 101.44225121 C76.90141346 105.25874042 76.90446898 109.0748165 76.90307617 112.89135742 C76.913862 114.02352188 76.92464783 115.15568634 76.9357605 116.32215881 C76.93163651 117.36397308 76.92751251 118.40578735 76.92326355 119.47917175 C76.92602893 120.38160708 76.92879431 121.28404242 76.93164349 122.21382427 C76.48016266 125.3156932 75.36000789 127.20537454 73.5625 129.75 C69.16741152 132.752979 64.06933582 133.29227803 58.91821289 132.36328125 C54.07033762 131.10119578 50.00292846 128.7717694 47.06591797 124.64941406 C45.67581149 122.10027834 44.44566527 119.52090499 43.25 116.875 C42.7861792 115.89885742 42.3223584 114.92271484 41.84448242 113.91699219 C40.87484352 111.87195941 39.91472712 109.82238624 38.96386719 107.76855469 C37.66009204 104.96021393 36.32685897 102.16902394 34.9765625 99.3828125 C28.70227197 86.42171432 22.60530352 73.37454511 16.48364258 60.34082031 C11.53211352 49.79978515 6.54811327 39.27518357 1.5625 28.75 C1.2325 62.41 0.9025 96.07 0.5625 130.75 C-5.3775 130.75 -11.3175 130.75 -17.4375 130.75 C-17.50704668 115.63329523 -17.56053487 100.51660908 -17.59293652 85.39978027 C-17.60838331 78.38023419 -17.62943074 71.36078955 -17.66381836 64.34130859 C-17.69699568 57.56563355 -17.7143596 50.79006391 -17.72213173 44.01431274 C-17.72766972 41.43077945 -17.73848403 38.84725183 -17.75469017 36.26376343 C-17.77650424 32.64186195 -17.77946517 29.02039423 -17.77807617 25.3984375 C-17.788862 24.3331633 -17.79964783 23.2678891 -17.8107605 22.17033386 C-17.78412125 15.74012764 -17.55946558 9.26655985 -13.05626202 4.19418335 C-8.84030805 0.45116749 -5.49108283 -0.57099648 0 0 Z " fill="#2A2928" transform="translate(120.4375,13.25)"/>
<path d="M0 0 C1.07738937 -0.00671722 2.15477875 -0.01343445 3.26481628 -0.02035522 C6.80582353 -0.03926674 10.3466408 -0.04325498 13.88769531 -0.04541016 C16.35532712 -0.05183926 18.82295817 -0.0585677 21.29058838 -0.06558228 C26.45171885 -0.07753529 31.61278245 -0.08126476 36.77392578 -0.08007812 C43.39412075 -0.07987423 50.01388985 -0.10725846 56.63398361 -0.14162254 C61.72454816 -0.16382313 66.81500874 -0.16791788 71.90561676 -0.16685867 C74.34731779 -0.16922179 76.78902138 -0.17808506 79.23067474 -0.19352341 C82.63716417 -0.2130586 86.0427151 -0.20739554 89.44921875 -0.1953125 C90.96569252 -0.21217102 90.96569252 -0.21217102 92.51280212 -0.22937012 C99.28918645 -0.1681066 99.28918645 -0.1681066 102.62701416 2.09432983 C103.96582031 4.29052734 103.96582031 4.29052734 103.90332031 7.91552734 C102.96582031 11.29052734 102.96582031 11.29052734 99.96582031 13.29052734 C97.92510986 13.54106712 97.92510986 13.54106712 95.54101562 13.54208374 C94.6356456 13.54746658 93.73027557 13.55284943 92.79747009 13.55839539 C91.80630692 13.55427139 90.81514374 13.5501474 89.79394531 13.54589844 C88.74803726 13.54951889 87.70212921 13.55313934 86.62452698 13.55686951 C84.34919101 13.56377118 82.07383847 13.56626751 79.79849243 13.56492233 C76.1909872 13.56395821 72.58378088 13.57688846 68.97631836 13.59390259 C58.71779746 13.64019378 48.45930528 13.66475981 38.20068359 13.67138672 C31.92714886 13.67641682 25.65392307 13.70074976 19.38049316 13.73671341 C16.99485127 13.74648297 14.60916671 13.74885898 12.22351074 13.74354172 C8.87295861 13.73642829 5.52331776 13.75384452 2.17285156 13.77636719 C1.19788223 13.76819473 0.2229129 13.76002228 -0.78160095 13.75160217 C-9.87020367 13.85956204 -18.77891481 16.13140692 -25.53417969 22.51318359 C-31.65275033 29.76305246 -33.39874334 36.82407965 -33.31933594 46.11474609 C-32.71407207 52.85556154 -29.98484748 59.60042101 -25.03417969 64.29052734 C-14.33819774 72.00788141 -4.08545333 72.57603935 8.65606308 72.56492233 C11.12992928 72.56394633 13.60337359 72.57702461 16.07717896 72.59390259 C23.10464264 72.63985219 30.13205888 72.6647636 37.15966797 72.67138672 C41.4755728 72.67643213 45.79103169 72.70082844 50.10678482 72.73671341 C51.73882481 72.74643585 53.37092671 72.74888516 55.00298691 72.74354172 C69.39641507 72.69861642 81.43268388 75.1066118 92.16113281 85.39599609 C101.62662522 95.54258482 104.50672837 105.71291474 104.27441406 119.47412109 C103.34745848 130.93786292 98.06271837 140.80846735 89.65332031 148.60302734 C79.99677678 156.26316188 69.86388367 158.59418379 57.84570312 158.56518555 C56.74734634 158.57029648 55.64898956 158.57540741 54.51734924 158.58067322 C50.90115861 158.59452987 47.28515927 158.59361617 43.66894531 158.59130859 C41.15264821 158.59519605 38.63635175 158.59953082 36.12005615 158.60429382 C30.85459774 158.61174636 25.58918872 158.6116092 20.32373047 158.60620117 C14.23703531 158.60014606 8.15057042 158.6125177 2.06391454 158.63377124 C-3.79926141 158.65349085 -9.66234681 158.65656412 -15.52555084 158.65303612 C-18.01830844 158.65355057 -20.51106963 158.6588114 -23.00380707 158.66884804 C-26.47993476 158.68113285 -29.95552211 158.67446976 -33.43164062 158.6628418 C-34.98391609 158.6743074 -34.98391609 158.6743074 -36.56755066 158.68600464 C-37.51235794 158.67899033 -38.45716522 158.67197601 -39.43060303 158.66474915 C-40.25204678 158.66491689 -41.07349052 158.66508463 -41.91982651 158.66525745 C-44.57553814 158.19458154 -45.45380969 157.45191343 -47.03417969 155.29052734 C-47.47167969 151.79052734 -47.47167969 151.79052734 -47.03417969 148.29052734 C-44.25651555 145.58463535 -42.27175934 144.91589202 -38.44442749 144.91871643 C-37.06952148 144.90858017 -37.06952148 144.90858017 -35.6668396 144.89823914 C-34.16910507 144.90981804 -34.16910507 144.90981804 -32.64111328 144.92163086 C-31.05499237 144.91598114 -31.05499237 144.91598114 -29.43682861 144.91021729 C-27.13968162 144.90378011 -24.84250799 144.90411923 -22.54536057 144.9104023 C-18.90437787 144.91950419 -15.26391113 144.90929674 -11.62295532 144.89378357 C-1.27061795 144.85366938 9.08167988 144.85247598 19.43408203 144.85473633 C25.76709924 144.85478755 32.09983987 144.83555432 38.43278122 144.80540276 C42.01010986 144.79460644 45.58690381 144.80669428 49.16421509 144.81922913 C51.37494425 144.81031914 53.58566912 144.80024283 55.79638672 144.78881836 C56.78273102 144.79856186 57.76907532 144.80830536 58.78530884 144.81834412 C67.68366863 144.7270528 75.78949646 142.27694608 82.43066406 136.13818359 C88.72124296 128.56707973 90.84953609 119.9104048 89.96582031 110.29052734 C88.04743052 102.40895001 83.78049438 95.34395116 76.84082031 90.94287109 C71.40048623 88.15269976 66.77882733 87.14405639 60.67138672 87.14868164 C59.56088455 87.14347 59.56088455 87.14347 58.427948 87.13815308 C56.81887182 87.13080052 55.20978553 87.12545247 53.60069656 87.12186241 C51.04282773 87.11467712 48.48514856 87.09899079 45.92733765 87.08052063 C38.65389771 87.02817982 31.38055739 86.98018525 24.10693359 86.96459961 C19.65527099 86.9544366 15.20408036 86.92489572 10.75260544 86.8832798 C9.06640594 86.87107323 7.38013942 86.86582935 5.69389725 86.86807823 C-9.89459882 86.88373768 -22.68582862 84.55186085 -34.72167969 73.91552734 C-35.48480469 73.04927734 -36.24792969 72.18302734 -37.03417969 71.29052734 C-37.52660156 70.74009766 -38.01902344 70.18966797 -38.52636719 69.62255859 C-46.60680776 59.87376835 -48.16740401 48.50799809 -47.26171875 36.24707031 C-45.99951472 25.39374079 -39.54042669 15.6864099 -31.23730469 8.85693359 C-21.47173507 1.91368285 -11.74276923 -0.01061269 0 0 Z " fill="#1A97AB" transform="translate(299.0341796875,-0.29052734375)"/>
<path d="M0 0 C1.31049316 0.01135986 1.31049316 0.01135986 2.64746094 0.02294922 C16.04632299 0.36275746 25.16985279 5.08308397 34.375 14.5625 C46.13869059 28.33688033 45.47777367 45.94079477 45.3828125 62.98046875 C45.37907616 64.96014767 45.37623212 66.93982845 45.37423706 68.91950989 C45.36664951 74.09633611 45.34704361 79.27304774 45.3248291 84.4498291 C45.30426486 89.74583385 45.29521285 95.04185735 45.28515625 100.33789062 C45.26379254 110.70448519 45.22865086 121.07096508 45.1875 131.4375 C39.2475 131.4375 33.3075 131.4375 27.1875 131.4375 C27.1875 112.2975 27.1875 93.1575 27.1875 73.4375 C12.0075 73.4375 -3.1725 73.4375 -18.8125 73.4375 C-18.8125 67.4975 -18.8125 61.5575 -18.8125 55.4375 C-3.6325 55.4375 11.5475 55.4375 27.1875 55.4375 C25.70180941 35.98102633 25.70180941 35.98102633 15.1875 21.4375 C8.81962952 17.27889071 1.58666101 17.79257902 -5.8125 18.4375 C-8.64670778 19.10608235 -10.25501811 19.91389377 -12.8125 21.4375 C-13.67875 21.9325 -14.545 22.4275 -15.4375 22.9375 C-22.34444072 30.20796392 -23.95163258 39.62468162 -24.01782227 49.24511719 C-24.03267166 50.57735573 -24.03267166 50.57735573 -24.04782104 51.93650818 C-24.07938188 54.86910343 -24.1041721 57.80171488 -24.12890625 60.734375 C-24.14948045 62.76890481 -24.17047705 64.80343039 -24.19187927 66.83795166 C-24.24705179 72.1907 -24.29648235 77.5434866 -24.34472656 82.89630127 C-24.39497676 88.35928754 -24.45064446 93.8222183 -24.50585938 99.28515625 C-24.61338203 110.00255848 -24.71433944 120.72000792 -24.8125 131.4375 C-30.7525 131.4375 -36.6925 131.4375 -42.8125 131.4375 C-42.90318084 119.53633707 -42.9764344 107.63540686 -43.01974869 95.73397541 C-43.04054642 90.20655199 -43.06872022 84.67937897 -43.11425781 79.15209961 C-43.15799558 73.8093186 -43.18169574 68.46677714 -43.19200897 63.1238308 C-43.19935049 61.09425274 -43.21368558 59.06468651 -43.23542023 57.03521156 C-43.40563457 40.46957399 -41.94890236 24.93093557 -30.37890625 11.91015625 C-21.45673167 3.52197715 -12.14240326 -0.14830776 0 0 Z " fill="#2A2928" transform="translate(42.8125,12.5625)"/>
<path d="M0 0 C57.16071429 0 57.16071429 0 77.08984375 18.02734375 C90.07390849 31.43624496 95.68174015 49.24521461 95.47021484 67.58203125 C94.85950847 84.64261986 88.08635542 101.76469302 76 114 C63.84877629 124.63232074 49.95667775 129.41111974 34 129.125 C33.03449219 129.11597656 32.06898438 129.10695312 31.07421875 129.09765625 C28.71603674 129.07430791 26.3579842 129.03844539 24 129 C24 123.39 24 117.78 24 112 C28.1146875 111.87625 28.1146875 111.87625 32.3125 111.75 C44.49073338 111.17081404 54.42752341 108.1487689 62.87109375 98.96484375 C73.78834076 85.65284579 76.37885724 71.7944812 75 55 C73.48643833 46.95060384 69.95188763 40.44983363 65 34 C64.38382813 33.16597656 63.76765625 32.33195312 63.1328125 31.47265625 C60.89058567 28.87315152 58.76239725 27.21855684 55.875 25.375 C55.00617187 24.80523437 54.13734375 24.23546875 53.2421875 23.6484375 C41.72060983 17.79047874 31.1136497 18.19214997 18 17 C18 53.96 18 90.92 18 129 C12.06 129 6.12 129 0 129 C0 86.43 0 43.86 0 0 Z " fill="#1A97AB" transform="translate(601,13)"/>
<path d="M0 0 C5.94 0 11.88 0 18 0 C18.0093457 2.82546387 18.01869141 5.65092773 18.02832031 8.56201172 C18.06216402 17.92189384 18.11775415 27.28155721 18.18390274 36.64126396 C18.22332662 42.31326286 18.25554017 47.98510769 18.27099609 53.65722656 C18.28619602 59.1363343 18.32070119 64.61501832 18.36830902 70.09393692 C18.38308837 72.1789493 18.39103903 74.26402218 18.39188385 76.34908676 C18.39426562 79.28119253 18.42144266 82.21213872 18.45410156 85.14404297 C18.4490712 85.99641037 18.44404083 86.84877777 18.43885803 87.72697449 C18.55679839 94.61963435 20.08080295 101.52708338 24.61407852 106.9202404 C29.42028143 111.55489017 35.10703617 113.81673637 41.73828125 114.12890625 C48.18996605 113.83443101 53.20275797 112.42983838 58 108 C64.56335182 100.19414283 66.29312812 92.70285894 66.31884766 82.76000977 C66.32889328 81.86165909 66.3389389 80.96330841 66.34928894 80.03773499 C66.38000792 77.08896483 66.39712462 74.14028501 66.4140625 71.19140625 C66.43278323 69.13874033 66.45235731 67.08608202 66.4727478 65.03343201 C66.52397936 59.64621483 66.56365312 54.25897272 66.60089111 48.87164307 C66.64098707 43.36814249 66.69205389 37.8647448 66.7421875 32.36132812 C66.83884057 21.57428399 66.92226468 10.78719707 67 0 C72.94 0 78.88 0 85 0 C85.06797594 12.04882272 85.12293131 24.09751653 85.15543652 36.14648819 C85.17104316 41.74226295 85.19218952 47.33789887 85.22631836 52.93359375 C85.25909084 58.34119772 85.27689057 63.74866876 85.28463173 69.15636444 C85.29014327 71.21187175 85.30090535 73.26737239 85.31719017 75.32282257 C85.44819633 92.55513565 84.52624275 106.91142168 72.375 120.25 C62.25672679 129.87993956 51.02936571 131.48125574 37.78515625 131.27734375 C26.60540384 130.83905036 16.87439298 125.34769001 9.25 117.3125 C3.85440075 110.80013718 -0.13121901 102.35082945 -0.12025452 93.79852295 C-0.12162918 92.96843719 -0.12300385 92.13835144 -0.12442017 91.28311157 C-0.11902725 89.93012466 -0.11902725 89.93012466 -0.11352539 88.54980469 C-0.11367142 87.59337067 -0.11381744 86.63693665 -0.1139679 85.65151978 C-0.11327148 82.49161508 -0.10549174 79.3317694 -0.09765625 76.171875 C-0.09579111 73.98040804 -0.09436766 71.78894067 -0.09336853 69.59747314 C-0.08955094 63.83039193 -0.07972709 58.06333591 -0.06866455 52.29626465 C-0.05843416 46.4110549 -0.05386742 40.52584108 -0.04882812 34.640625 C-0.03810417 23.09373715 -0.02051347 11.54687461 0 0 Z " fill="#1A97AB" transform="translate(497,13)"/>
<path d="M0 0 C5.94 0 11.88 0 18 0 C18.01458252 1.28575928 18.02916504 2.57151855 18.04418945 3.89624023 C18.10247569 8.69924738 18.17970561 13.5018005 18.26245117 18.30444336 C18.29555845 20.37695914 18.32363388 22.44956201 18.34643555 24.5222168 C18.38024376 27.51388411 18.43257168 30.50476349 18.48828125 33.49609375 C18.49467117 34.41208847 18.5010611 35.32808319 18.50764465 36.27183533 C18.65424298 42.79096714 19.21371487 49.74265598 23.61177063 54.88426208 C30.00252632 60.94346492 37.27806876 61.47459521 45.7734375 61.30859375 C51.22844384 60.78686796 55.65084605 59.33183832 59.58984375 55.421875 C64.86698525 48.63042333 65.30809292 41.20742661 65.4140625 32.91015625 C65.43342865 31.96563095 65.4527948 31.02110565 65.4727478 30.04795837 C65.53217692 27.05289533 65.57878154 24.05779309 65.625 21.0625 C65.66321356 19.02277038 65.70226723 16.98305631 65.7421875 14.94335938 C65.8378481 9.96236701 65.92201365 4.98129917 66 0 C71.61 0 77.22 0 83 0 C83.09936358 7.08003716 83.17170315 14.15966248 83.21972656 21.24023438 C83.23976034 23.64557981 83.26699522 26.05087703 83.30175781 28.45605469 C83.35063808 31.92655378 83.37305205 35.39640526 83.390625 38.8671875 C83.41127014 39.93113739 83.43191528 40.99508728 83.45318604 42.09127808 C83.45626061 52.47442213 80.51975856 60.35963043 73.3359375 67.890625 C66.21879748 74.31747385 60.48702823 76.89177151 51 79 C51 95.5 51 112 51 129 C45.06 129 39.12 129 33 129 C33 112.5 33 96 33 79 C30.03 78.34 27.06 77.68 24 77 C12.36385518 71.79435627 5.73563925 63.66429265 1 52 C0.20186414 48.6502235 -0.12279452 45.55676618 -0.11352539 42.11791992 C-0.11344986 41.17732224 -0.11337433 40.23672455 -0.11329651 39.2676239 C-0.10813522 38.2653627 -0.10297394 37.2631015 -0.09765625 36.23046875 C-0.0962413 35.19432938 -0.09482635 34.15819 -0.09336853 33.09065247 C-0.08778242 29.78957196 -0.07523242 26.48855992 -0.0625 23.1875 C-0.05748321 20.94596452 -0.05292061 18.70442798 -0.04882812 16.46289062 C-0.03781753 10.97523414 -0.02056239 5.48762867 0 0 Z " fill="#1A97AB" transform="translate(705,13)"/>
<path d="M0 0 C26.73 0 53.46 0 81 0 C81 5.61 81 11.22 81 17 C70.44 17 59.88 17 49 17 C49 53.96 49 90.92 49 129 C43.06 129 37.12 129 31 129 C31 92.04 31 55.08 31 17 C20.77 17 10.54 17 0 17 C0 11.39 0 5.78 0 0 Z " fill="#1A97AB" transform="translate(408,13)"/>
<path d="M0 0 C6.27 0 12.54 0 19 0 C19 42.57 19 85.14 19 129 C12.73 129 6.46 129 0 129 C0 86.43 0 43.86 0 0 Z " fill="#2A2928" transform="translate(217,15)"/>
<path d="M0 0 C0.8913414 -0.00525696 1.7826828 -0.01051392 2.70103455 -0.01593018 C5.65251096 -0.02915227 8.60344957 -0.0203835 11.55493164 -0.01025391 C13.60372522 -0.01227418 15.65251809 -0.01518523 17.7013092 -0.01895142 C21.99788246 -0.02337792 26.29426876 -0.01693384 30.59082031 -0.00292969 C36.100221 0.01415152 41.60918293 0.0043297 47.11856747 -0.01364708 C51.35046191 -0.02448527 55.58225228 -0.02103821 59.81414986 -0.0132637 C61.84554661 -0.01126124 63.87695279 -0.01372259 65.90833855 -0.02070236 C68.74774082 -0.02831612 71.58643197 -0.01671307 74.42578125 0 C75.26695496 -0.00607269 76.10812866 -0.01214539 76.97479248 -0.0184021 C80.33370836 0.01824942 82.81895972 0.1397929 85.80348206 1.75619507 C87.27758789 3.38818359 87.27758789 3.38818359 87.71508789 5.88818359 C87.19989886 8.83212092 86.57773869 9.55416267 84.27758789 11.38818359 C81.26521112 11.67938334 78.46040961 11.78746127 75.44750977 11.76049805 C74.5448085 11.76414871 73.64210724 11.76779938 72.71205139 11.77156067 C69.72328982 11.77967744 66.73506849 11.76604662 63.74633789 11.75146484 C61.6727295 11.75094637 59.5991206 11.75146357 57.5255127 11.75297546 C53.17765983 11.75288569 48.82999218 11.74244561 44.48217773 11.72436523 C38.90324883 11.70167798 33.32459069 11.70113344 27.74562836 11.70788288 C23.46317123 11.71122108 19.18077607 11.70459556 14.89833069 11.69475365 C12.84099146 11.6908988 10.78364533 11.68975461 8.7263031 11.69133949 C5.85328999 11.6917095 2.98062669 11.67910798 0.10766602 11.6628418 C-0.7464537 11.66531921 -1.60057343 11.66779663 -2.48057556 11.67034912 C-6.40340884 11.63482266 -8.38487988 11.61320508 -11.72241211 9.38818359 C-12.3794566 4.24133512 -12.3794566 4.24133512 -10.43813229 1.72058678 C-7.43122117 -0.61453639 -3.65639763 -0.02633329 0 0 Z " fill="#1FB8CF" transform="translate(281.722412109375,121.61181640625)"/>
<path d="M0 0 C0.92352264 -0.0049649 1.84704529 -0.00992981 2.79855347 -0.01504517 C5.86774426 -0.02970602 8.93688339 -0.03647488 12.00610352 -0.04199219 C14.12980655 -0.04773989 16.25350955 -0.05349766 18.37721252 -0.05926514 C22.8352991 -0.06978595 27.29336759 -0.07562171 31.75146484 -0.07910156 C37.47630494 -0.08459214 43.20090788 -0.10862772 48.92567348 -0.13707352 C53.31359058 -0.15565512 57.70145002 -0.16090307 62.08940315 -0.16243744 C64.20061606 -0.16547405 66.31182771 -0.17353623 68.42300224 -0.18662262 C71.3707292 -0.20359168 74.31786964 -0.20182549 77.265625 -0.1953125 C78.14518356 -0.20452728 79.02474213 -0.21374207 79.93095398 -0.22323608 C82.35716248 -0.20635986 82.35716248 -0.20635986 86.19750977 0.16113281 C88.34666761 3.38486959 88.58037779 4.42816955 88.19750977 8.16113281 C85.53823564 10.82040694 83.55928348 10.40666471 79.94206238 10.43218994 C79.06407486 10.42814148 78.18608734 10.42409302 77.28149414 10.41992188 C76.35782547 10.42342651 75.4341568 10.42693115 74.48249817 10.43054199 C71.41867636 10.43936957 68.35508406 10.43350652 65.29125977 10.42675781 C63.16898555 10.42810417 61.04671163 10.43004445 58.92443848 10.43255615 C54.47230092 10.43550881 50.0202435 10.43120521 45.56811523 10.421875 C39.85118989 10.41048042 34.13445232 10.41703913 28.41753387 10.42901993 C24.03390072 10.4362347 19.65031234 10.43395236 15.26667786 10.42876434 C13.15826902 10.42742679 11.04985617 10.42907925 8.94145203 10.43372345 C5.9986997 10.43878238 3.05625473 10.43108735 0.11352539 10.41992188 C-0.76446213 10.42397034 -1.64244965 10.4280188 -2.54704285 10.43218994 C-8.57396258 10.38966047 -8.57396258 10.38966047 -10.80249023 8.16113281 C-10.02600658 -0.69078083 -8.15931991 0.01034613 0 0 Z " fill="#1FB8CF" transform="translate(296.802490234375,24.8388671875)"/>
<path d="M0 0 C1.08851509 -0.00788544 1.08851509 -0.00788544 2.19902039 -0.01593018 C4.59318691 -0.02911334 6.98668631 -0.02039846 9.38085938 -0.01025391 C11.04707975 -0.01227514 12.71329926 -0.01518698 14.3795166 -0.01895142 C17.86979605 -0.02337247 21.35984502 -0.01695085 24.85009766 -0.00292969 C29.32257687 0.0141622 33.794516 0.00431983 38.2669754 -0.01364708 C41.70709294 -0.02449089 45.14708257 -0.02103586 48.58720398 -0.0132637 C50.23622196 -0.01126334 51.88525159 -0.01371523 53.53425598 -0.02070236 C55.83955622 -0.02832682 58.14398348 -0.01669962 60.44921875 0 C61.76063843 0.00238678 63.07205811 0.00477356 64.42321777 0.00723267 C67.88899882 0.40715266 69.32497329 0.89797675 71.72460938 3.38818359 C72.21085833 6.16674902 72.21407073 7.63972983 70.65734863 10.02017212 C67.7439992 12.08226893 64.8034587 11.80602071 61.36328125 11.77636719 C60.61663712 11.78162415 59.86999298 11.7868811 59.10072327 11.79229736 C56.63138949 11.80550685 54.16269977 11.79675626 51.69335938 11.78662109 C49.97847367 11.78864156 48.26358881 11.79155278 46.54870605 11.7953186 C42.95409975 11.79974323 39.35971704 11.79330653 35.76513672 11.77929688 C31.15465244 11.7622048 26.54469204 11.77204526 21.93422699 11.79001427 C18.39292444 11.80084842 14.85174634 11.79740748 11.31044006 11.78963089 C9.61035602 11.78762786 7.91026072 11.79009177 6.21018982 11.79706955 C3.83513402 11.80467812 1.46092977 11.79308899 -0.9140625 11.77636719 C-1.97082436 11.78547623 -1.97082436 11.78547623 -3.04893494 11.79476929 C-5.91971354 11.7572734 -7.82621959 11.70611118 -10.20812988 10.02017212 C-11.76485198 7.63972983 -11.76163958 6.16674902 -11.27539062 3.38818359 C-7.87065186 -0.14506206 -4.74276031 0.00863181 0 0 Z " fill="#1FB8CF" transform="translate(297.275390625,48.61181640625)"/>
<path d="M0 0 C0.73674454 -0.0049649 1.47348907 -0.00992981 2.2325592 -0.01504517 C4.67466152 -0.02967461 7.11669892 -0.03646953 9.55883789 -0.04199219 C11.25273135 -0.04774234 12.94662478 -0.05350008 14.64051819 -0.05926514 C18.1939423 -0.0697769 21.74734377 -0.07561863 25.30078125 -0.07910156 C29.85855662 -0.08459127 34.41603399 -0.10862855 38.97371578 -0.13707352 C42.47295513 -0.15567661 45.97212231 -0.16090421 49.47140694 -0.16243744 C51.15196935 -0.16546902 52.83253034 -0.17351453 54.51304436 -0.18662262 C56.86179318 -0.20363734 59.20980867 -0.20181462 61.55859375 -0.1953125 C62.60368607 -0.20913467 62.60368607 -0.20913467 63.66989136 -0.22323608 C66.51505991 -0.1985054 68.42033669 -0.12409775 70.81495667 1.48809814 C71.84399414 3.16113281 71.84399414 3.16113281 71.59399414 6.28613281 C70.84399414 9.16113281 70.84399414 9.16113281 69.84399414 10.16113281 C67.42081423 10.26674312 65.025992 10.30791664 62.60205078 10.30639648 C61.84433884 10.3097551 61.08662689 10.31311371 60.30595398 10.3165741 C57.78866967 10.32611203 55.27145167 10.32802863 52.75415039 10.32910156 C51.01159131 10.33231217 49.2690325 10.33567609 47.526474 10.33918762 C43.86871719 10.34518601 40.21098404 10.3470268 36.55322266 10.34643555 C31.85750485 10.34633388 27.16193812 10.35998718 22.46625614 10.37720776 C18.8658325 10.38830576 15.26544564 10.39035543 11.66500664 10.38982582 C9.93338945 10.39100922 8.20177141 10.39545104 6.47017097 10.40315819 C4.05178255 10.41291392 1.63372535 10.41009772 -0.78466797 10.40405273 C-1.50526398 10.40967224 -2.22585999 10.41529175 -2.96829224 10.42108154 C-7.92769016 10.38944852 -7.92769016 10.38944852 -10.15600586 8.16113281 C-9.90600586 4.59863281 -9.90600586 4.59863281 -9.15600586 1.16113281 C-6.21107428 -0.31133297 -3.2290307 0.00516578 0 0 Z " fill="#1FB8CF" transform="translate(297.156005859375,97.8388671875)"/>
</svg>
